%TF.GenerationSoftware,KiCad,Pcbnew,(5.1.6)-1*%
%TF.CreationDate,2021-01-01T00:29:57-06:00*%
%TF.ProjectId,BoardDesign,426f6172-6444-4657-9369-676e2e6b6963,rev?*%
%TF.SameCoordinates,Original*%
%TF.FileFunction,Soldermask,Bot*%
%TF.FilePolarity,Negative*%
%FSLAX46Y46*%
G04 Gerber Fmt 4.6, Leading zero omitted, Abs format (unit mm)*
G04 Created by KiCad (PCBNEW (5.1.6)-1) date 2021-01-01 00:29:57*
%MOMM*%
%LPD*%
G01*
G04 APERTURE LIST*
%ADD10C,2.300000*%
%ADD11O,2.500000X1.700000*%
%ADD12R,2.500000X1.700000*%
%ADD13C,1.624000*%
%ADD14R,1.624000X1.624000*%
%ADD15C,1.880000*%
%ADD16O,1.700000X1.700000*%
%ADD17R,1.700000X1.700000*%
G04 APERTURE END LIST*
D10*
%TO.C,REF\u002A\u002A*%
X176000000Y-82000000D03*
%TD*%
%TO.C,REF\u002A\u002A*%
X105000000Y-82000000D03*
%TD*%
D11*
%TO.C,U2*%
X121920000Y-60960000D03*
X114300000Y-78740000D03*
X121920000Y-63500000D03*
X114300000Y-76200000D03*
X121920000Y-66040000D03*
X114300000Y-73660000D03*
X121920000Y-68580000D03*
X114300000Y-71120000D03*
X121920000Y-71120000D03*
X114300000Y-68580000D03*
X121920000Y-73660000D03*
X114300000Y-66040000D03*
X121920000Y-76200000D03*
X114300000Y-63500000D03*
X121920000Y-78740000D03*
D12*
X114300000Y-60960000D03*
%TD*%
D13*
%TO.C,U1*%
X147320000Y-52578000D03*
X144780000Y-52578000D03*
X142240000Y-52578000D03*
X139700000Y-52578000D03*
X137160000Y-52578000D03*
D14*
X134620000Y-52578000D03*
D13*
X147320000Y-30480000D03*
X144780000Y-30480000D03*
X142240000Y-30480000D03*
X139700000Y-30480000D03*
X137160000Y-30480000D03*
X134620000Y-30480000D03*
%TD*%
D15*
%TO.C,A1*%
X175260000Y-76200000D03*
X175260000Y-60960000D03*
X134620000Y-60960000D03*
X134620000Y-76200000D03*
D16*
X172720000Y-60960000D03*
X172720000Y-76200000D03*
X137160000Y-60960000D03*
X170180000Y-76200000D03*
X139700000Y-60960000D03*
X167640000Y-76200000D03*
X142240000Y-60960000D03*
X165100000Y-76200000D03*
X144780000Y-60960000D03*
X162560000Y-76200000D03*
X147320000Y-60960000D03*
X160020000Y-76200000D03*
X149860000Y-60960000D03*
X157480000Y-76200000D03*
X152400000Y-60960000D03*
X154940000Y-76200000D03*
X154940000Y-60960000D03*
X152400000Y-76200000D03*
X157480000Y-60960000D03*
X149860000Y-76200000D03*
X160020000Y-60960000D03*
X147320000Y-76200000D03*
X162560000Y-60960000D03*
X144780000Y-76200000D03*
X165100000Y-60960000D03*
X142240000Y-76200000D03*
X167640000Y-60960000D03*
X139700000Y-76200000D03*
X170180000Y-60960000D03*
D17*
X137160000Y-76200000D03*
%TD*%
M02*
