%TF.GenerationSoftware,KiCad,Pcbnew,(5.1.6)-1*%
%TF.CreationDate,2021-01-01T00:29:57-06:00*%
%TF.ProjectId,BoardDesign,426f6172-6444-4657-9369-676e2e6b6963,rev?*%
%TF.SameCoordinates,Original*%
%TF.FileFunction,Copper,L1,Top*%
%TF.FilePolarity,Positive*%
%FSLAX46Y46*%
G04 Gerber Fmt 4.6, Leading zero omitted, Abs format (unit mm)*
G04 Created by KiCad (PCBNEW (5.1.6)-1) date 2021-01-01 00:29:57*
%MOMM*%
%LPD*%
G01*
G04 APERTURE LIST*
%TA.AperFunction,ComponentPad*%
%ADD10O,2.400000X1.600000*%
%TD*%
%TA.AperFunction,ComponentPad*%
%ADD11R,2.400000X1.600000*%
%TD*%
%TA.AperFunction,ComponentPad*%
%ADD12C,1.524000*%
%TD*%
%TA.AperFunction,ComponentPad*%
%ADD13R,1.524000X1.524000*%
%TD*%
%TA.AperFunction,ComponentPad*%
%ADD14O,1.600000X1.600000*%
%TD*%
%TA.AperFunction,ComponentPad*%
%ADD15R,1.600000X1.600000*%
%TD*%
%TA.AperFunction,ViaPad*%
%ADD16C,0.800000*%
%TD*%
%TA.AperFunction,Conductor*%
%ADD17C,0.500000*%
%TD*%
%TA.AperFunction,Conductor*%
%ADD18C,1.250000*%
%TD*%
G04 APERTURE END LIST*
D10*
%TO.P,U2,16*%
%TO.N,Net-(A1-Pad27)*%
X121920000Y-60960000D03*
%TO.P,U2,8*%
%TO.N,GND*%
X114300000Y-78740000D03*
%TO.P,U2,15*%
%TO.N,Net-(U1-Pad11)*%
X121920000Y-63500000D03*
%TO.P,U2,7*%
%TO.N,Net-(U1-Pad3)*%
X114300000Y-76200000D03*
%TO.P,U2,14*%
%TO.N,Net-(A1-Pad13)*%
X121920000Y-66040000D03*
%TO.P,U2,6*%
%TO.N,Net-(U1-Pad5)*%
X114300000Y-73660000D03*
%TO.P,U2,13*%
%TO.N,GND*%
X121920000Y-68580000D03*
%TO.P,U2,5*%
%TO.N,Net-(U1-Pad10)*%
X114300000Y-71120000D03*
%TO.P,U2,12*%
%TO.N,Net-(A1-Pad15)*%
X121920000Y-71120000D03*
%TO.P,U2,4*%
%TO.N,Net-(U1-Pad1)*%
X114300000Y-68580000D03*
%TO.P,U2,11*%
%TO.N,Net-(A1-Pad14)*%
X121920000Y-73660000D03*
%TO.P,U2,3*%
%TO.N,Net-(U1-Pad2)*%
X114300000Y-66040000D03*
%TO.P,U2,10*%
%TO.N,Net-(A1-Pad27)*%
X121920000Y-76200000D03*
%TO.P,U2,2*%
%TO.N,Net-(U1-Pad4)*%
X114300000Y-63500000D03*
%TO.P,U2,9*%
%TO.N,Net-(U2-Pad9)*%
X121920000Y-78740000D03*
D11*
%TO.P,U2,1*%
%TO.N,Net-(U1-Pad7)*%
X114300000Y-60960000D03*
%TD*%
D12*
%TO.P,U1,6*%
%TO.N,Net-(R1-Pad1)*%
X147320000Y-52578000D03*
%TO.P,U1,5*%
%TO.N,Net-(U1-Pad5)*%
X144780000Y-52578000D03*
%TO.P,U1,4*%
%TO.N,Net-(U1-Pad4)*%
X142240000Y-52578000D03*
%TO.P,U1,3*%
%TO.N,Net-(U1-Pad3)*%
X139700000Y-52578000D03*
%TO.P,U1,2*%
%TO.N,Net-(U1-Pad2)*%
X137160000Y-52578000D03*
D13*
%TO.P,U1,1*%
%TO.N,Net-(U1-Pad1)*%
X134620000Y-52578000D03*
D12*
%TO.P,U1,7*%
%TO.N,Net-(U1-Pad7)*%
X147320000Y-30480000D03*
%TO.P,U1,8*%
%TO.N,Net-(R2-Pad2)*%
X144780000Y-30480000D03*
%TO.P,U1,9*%
%TO.N,Net-(R3-Pad1)*%
X142240000Y-30480000D03*
%TO.P,U1,10*%
%TO.N,Net-(U1-Pad10)*%
X139700000Y-30480000D03*
%TO.P,U1,11*%
%TO.N,Net-(U1-Pad11)*%
X137160000Y-30480000D03*
%TO.P,U1,12*%
%TO.N,Net-(R4-Pad1)*%
X134620000Y-30480000D03*
%TD*%
%TO.P,TH1,2*%
%TO.N,Net-(A1-Pad19)*%
%TA.AperFunction,SMDPad,CuDef*%
G36*
G01*
X134012500Y-81456250D02*
X134012500Y-80543750D01*
G75*
G02*
X134256250Y-80300000I243750J0D01*
G01*
X134743750Y-80300000D01*
G75*
G02*
X134987500Y-80543750I0J-243750D01*
G01*
X134987500Y-81456250D01*
G75*
G02*
X134743750Y-81700000I-243750J0D01*
G01*
X134256250Y-81700000D01*
G75*
G02*
X134012500Y-81456250I0J243750D01*
G01*
G37*
%TD.AperFunction*%
%TO.P,TH1,1*%
%TO.N,Net-(A1-Pad27)*%
%TA.AperFunction,SMDPad,CuDef*%
G36*
G01*
X132137500Y-81456250D02*
X132137500Y-80543750D01*
G75*
G02*
X132381250Y-80300000I243750J0D01*
G01*
X132868750Y-80300000D01*
G75*
G02*
X133112500Y-80543750I0J-243750D01*
G01*
X133112500Y-81456250D01*
G75*
G02*
X132868750Y-81700000I-243750J0D01*
G01*
X132381250Y-81700000D01*
G75*
G02*
X132137500Y-81456250I0J243750D01*
G01*
G37*
%TD.AperFunction*%
%TD*%
%TO.P,R5,2*%
%TO.N,GND*%
%TA.AperFunction,SMDPad,CuDef*%
G36*
G01*
X142887500Y-81456250D02*
X142887500Y-80543750D01*
G75*
G02*
X143131250Y-80300000I243750J0D01*
G01*
X143618750Y-80300000D01*
G75*
G02*
X143862500Y-80543750I0J-243750D01*
G01*
X143862500Y-81456250D01*
G75*
G02*
X143618750Y-81700000I-243750J0D01*
G01*
X143131250Y-81700000D01*
G75*
G02*
X142887500Y-81456250I0J243750D01*
G01*
G37*
%TD.AperFunction*%
%TO.P,R5,1*%
%TO.N,Net-(A1-Pad19)*%
%TA.AperFunction,SMDPad,CuDef*%
G36*
G01*
X141012500Y-81456250D02*
X141012500Y-80543750D01*
G75*
G02*
X141256250Y-80300000I243750J0D01*
G01*
X141743750Y-80300000D01*
G75*
G02*
X141987500Y-80543750I0J-243750D01*
G01*
X141987500Y-81456250D01*
G75*
G02*
X141743750Y-81700000I-243750J0D01*
G01*
X141256250Y-81700000D01*
G75*
G02*
X141012500Y-81456250I0J243750D01*
G01*
G37*
%TD.AperFunction*%
%TD*%
%TO.P,R4,2*%
%TO.N,Net-(A1-Pad10)*%
%TA.AperFunction,SMDPad,CuDef*%
G36*
G01*
X160476250Y-83370000D02*
X159563750Y-83370000D01*
G75*
G02*
X159320000Y-83126250I0J243750D01*
G01*
X159320000Y-82638750D01*
G75*
G02*
X159563750Y-82395000I243750J0D01*
G01*
X160476250Y-82395000D01*
G75*
G02*
X160720000Y-82638750I0J-243750D01*
G01*
X160720000Y-83126250D01*
G75*
G02*
X160476250Y-83370000I-243750J0D01*
G01*
G37*
%TD.AperFunction*%
%TO.P,R4,1*%
%TO.N,Net-(R4-Pad1)*%
%TA.AperFunction,SMDPad,CuDef*%
G36*
G01*
X160476250Y-85245000D02*
X159563750Y-85245000D01*
G75*
G02*
X159320000Y-85001250I0J243750D01*
G01*
X159320000Y-84513750D01*
G75*
G02*
X159563750Y-84270000I243750J0D01*
G01*
X160476250Y-84270000D01*
G75*
G02*
X160720000Y-84513750I0J-243750D01*
G01*
X160720000Y-85001250D01*
G75*
G02*
X160476250Y-85245000I-243750J0D01*
G01*
G37*
%TD.AperFunction*%
%TD*%
%TO.P,R3,2*%
%TO.N,Net-(A1-Pad9)*%
%TA.AperFunction,SMDPad,CuDef*%
G36*
G01*
X157936250Y-83370000D02*
X157023750Y-83370000D01*
G75*
G02*
X156780000Y-83126250I0J243750D01*
G01*
X156780000Y-82638750D01*
G75*
G02*
X157023750Y-82395000I243750J0D01*
G01*
X157936250Y-82395000D01*
G75*
G02*
X158180000Y-82638750I0J-243750D01*
G01*
X158180000Y-83126250D01*
G75*
G02*
X157936250Y-83370000I-243750J0D01*
G01*
G37*
%TD.AperFunction*%
%TO.P,R3,1*%
%TO.N,Net-(R3-Pad1)*%
%TA.AperFunction,SMDPad,CuDef*%
G36*
G01*
X157936250Y-85245000D02*
X157023750Y-85245000D01*
G75*
G02*
X156780000Y-85001250I0J243750D01*
G01*
X156780000Y-84513750D01*
G75*
G02*
X157023750Y-84270000I243750J0D01*
G01*
X157936250Y-84270000D01*
G75*
G02*
X158180000Y-84513750I0J-243750D01*
G01*
X158180000Y-85001250D01*
G75*
G02*
X157936250Y-85245000I-243750J0D01*
G01*
G37*
%TD.AperFunction*%
%TD*%
%TO.P,R2,2*%
%TO.N,Net-(R2-Pad2)*%
%TA.AperFunction,SMDPad,CuDef*%
G36*
G01*
X154483750Y-84270000D02*
X155396250Y-84270000D01*
G75*
G02*
X155640000Y-84513750I0J-243750D01*
G01*
X155640000Y-85001250D01*
G75*
G02*
X155396250Y-85245000I-243750J0D01*
G01*
X154483750Y-85245000D01*
G75*
G02*
X154240000Y-85001250I0J243750D01*
G01*
X154240000Y-84513750D01*
G75*
G02*
X154483750Y-84270000I243750J0D01*
G01*
G37*
%TD.AperFunction*%
%TO.P,R2,1*%
%TO.N,Net-(A1-Pad8)*%
%TA.AperFunction,SMDPad,CuDef*%
G36*
G01*
X154483750Y-82395000D02*
X155396250Y-82395000D01*
G75*
G02*
X155640000Y-82638750I0J-243750D01*
G01*
X155640000Y-83126250D01*
G75*
G02*
X155396250Y-83370000I-243750J0D01*
G01*
X154483750Y-83370000D01*
G75*
G02*
X154240000Y-83126250I0J243750D01*
G01*
X154240000Y-82638750D01*
G75*
G02*
X154483750Y-82395000I243750J0D01*
G01*
G37*
%TD.AperFunction*%
%TD*%
%TO.P,R1,2*%
%TO.N,Net-(A1-Pad7)*%
%TA.AperFunction,SMDPad,CuDef*%
G36*
G01*
X152856250Y-83370000D02*
X151943750Y-83370000D01*
G75*
G02*
X151700000Y-83126250I0J243750D01*
G01*
X151700000Y-82638750D01*
G75*
G02*
X151943750Y-82395000I243750J0D01*
G01*
X152856250Y-82395000D01*
G75*
G02*
X153100000Y-82638750I0J-243750D01*
G01*
X153100000Y-83126250D01*
G75*
G02*
X152856250Y-83370000I-243750J0D01*
G01*
G37*
%TD.AperFunction*%
%TO.P,R1,1*%
%TO.N,Net-(R1-Pad1)*%
%TA.AperFunction,SMDPad,CuDef*%
G36*
G01*
X152856250Y-85245000D02*
X151943750Y-85245000D01*
G75*
G02*
X151700000Y-85001250I0J243750D01*
G01*
X151700000Y-84513750D01*
G75*
G02*
X151943750Y-84270000I243750J0D01*
G01*
X152856250Y-84270000D01*
G75*
G02*
X153100000Y-84513750I0J-243750D01*
G01*
X153100000Y-85001250D01*
G75*
G02*
X152856250Y-85245000I-243750J0D01*
G01*
G37*
%TD.AperFunction*%
%TD*%
D14*
%TO.P,A1,16*%
%TO.N,Net-(A1-Pad16)*%
X172720000Y-60960000D03*
%TO.P,A1,15*%
%TO.N,Net-(A1-Pad15)*%
X172720000Y-76200000D03*
%TO.P,A1,30*%
%TO.N,Net-(A1-Pad30)*%
X137160000Y-60960000D03*
%TO.P,A1,14*%
%TO.N,Net-(A1-Pad14)*%
X170180000Y-76200000D03*
%TO.P,A1,29*%
%TO.N,GND*%
X139700000Y-60960000D03*
%TO.P,A1,13*%
%TO.N,Net-(A1-Pad13)*%
X167640000Y-76200000D03*
%TO.P,A1,28*%
%TO.N,Net-(A1-Pad28)*%
X142240000Y-60960000D03*
%TO.P,A1,12*%
%TO.N,Net-(A1-Pad12)*%
X165100000Y-76200000D03*
%TO.P,A1,27*%
%TO.N,Net-(A1-Pad27)*%
X144780000Y-60960000D03*
%TO.P,A1,11*%
%TO.N,Net-(A1-Pad11)*%
X162560000Y-76200000D03*
%TO.P,A1,26*%
%TO.N,Net-(A1-Pad26)*%
X147320000Y-60960000D03*
%TO.P,A1,10*%
%TO.N,Net-(A1-Pad10)*%
X160020000Y-76200000D03*
%TO.P,A1,25*%
%TO.N,Net-(A1-Pad25)*%
X149860000Y-60960000D03*
%TO.P,A1,9*%
%TO.N,Net-(A1-Pad9)*%
X157480000Y-76200000D03*
%TO.P,A1,24*%
%TO.N,Net-(A1-Pad24)*%
X152400000Y-60960000D03*
%TO.P,A1,8*%
%TO.N,Net-(A1-Pad8)*%
X154940000Y-76200000D03*
%TO.P,A1,23*%
%TO.N,Net-(A1-Pad23)*%
X154940000Y-60960000D03*
%TO.P,A1,7*%
%TO.N,Net-(A1-Pad7)*%
X152400000Y-76200000D03*
%TO.P,A1,22*%
%TO.N,Net-(A1-Pad22)*%
X157480000Y-60960000D03*
%TO.P,A1,6*%
%TO.N,Net-(A1-Pad6)*%
X149860000Y-76200000D03*
%TO.P,A1,21*%
%TO.N,Net-(A1-Pad21)*%
X160020000Y-60960000D03*
%TO.P,A1,5*%
%TO.N,Net-(A1-Pad5)*%
X147320000Y-76200000D03*
%TO.P,A1,20*%
%TO.N,Net-(A1-Pad20)*%
X162560000Y-60960000D03*
%TO.P,A1,4*%
%TO.N,GND*%
X144780000Y-76200000D03*
%TO.P,A1,19*%
%TO.N,Net-(A1-Pad19)*%
X165100000Y-60960000D03*
%TO.P,A1,3*%
%TO.N,Net-(A1-Pad3)*%
X142240000Y-76200000D03*
%TO.P,A1,18*%
%TO.N,Net-(A1-Pad18)*%
X167640000Y-60960000D03*
%TO.P,A1,2*%
%TO.N,Net-(A1-Pad2)*%
X139700000Y-76200000D03*
%TO.P,A1,17*%
%TO.N,Net-(A1-Pad17)*%
X170180000Y-60960000D03*
D15*
%TO.P,A1,1*%
%TO.N,Net-(A1-Pad1)*%
X137160000Y-76200000D03*
%TD*%
D16*
%TO.N,Net-(A1-Pad13)*%
X125000000Y-60000000D03*
X125466041Y-62033959D03*
%TO.N,Net-(R1-Pad1)*%
X152400000Y-85090000D03*
%TO.N,Net-(R2-Pad2)*%
X154940000Y-85090000D03*
%TO.N,Net-(R3-Pad1)*%
X157480000Y-85090000D03*
%TO.N,Net-(R4-Pad1)*%
X160020000Y-85090000D03*
%TO.N,Net-(U1-Pad11)*%
X129540000Y-45720000D03*
X129540000Y-45720000D03*
%TD*%
D17*
%TO.N,Net-(A1-Pad15)*%
X172720000Y-76200000D02*
X172720000Y-82550000D01*
X172720000Y-82550000D02*
X167640000Y-87630000D01*
X167640000Y-87630000D02*
X127000000Y-87630000D01*
X127000000Y-87630000D02*
X119380000Y-80010000D01*
X119380000Y-80010000D02*
X119380000Y-72390000D01*
X120650000Y-71120000D02*
X121920000Y-71120000D01*
X119380000Y-72390000D02*
X120650000Y-71120000D01*
%TO.N,Net-(A1-Pad14)*%
X170180000Y-81280000D02*
X165100000Y-86360000D01*
X165100000Y-86360000D02*
X126719962Y-86360000D01*
X120269990Y-75310010D02*
X121920000Y-73660000D01*
X170180000Y-76200000D02*
X170180000Y-81280000D01*
X126719962Y-86360000D02*
X120269990Y-79910028D01*
X120269990Y-79910028D02*
X120269990Y-75310010D01*
%TO.N,GND*%
X120650000Y-68580000D02*
X121920000Y-68580000D01*
X118110000Y-76200000D02*
X118110000Y-71120000D01*
X118110000Y-71120000D02*
X120650000Y-68580000D01*
X114300000Y-78740000D02*
X115570000Y-78740000D01*
X115570000Y-78740000D02*
X118110000Y-76200000D01*
D18*
X132080000Y-68580000D02*
X121920000Y-68580000D01*
X139700000Y-60960000D02*
X132080000Y-68580000D01*
D17*
X144780000Y-79595000D02*
X143375000Y-81000000D01*
X144780000Y-76200000D02*
X144780000Y-79595000D01*
%TO.N,Net-(A1-Pad13)*%
X166350001Y-74910001D02*
X166350001Y-60359999D01*
X127280010Y-57719990D02*
X125000000Y-60000000D01*
X167640000Y-76200000D02*
X166350001Y-74910001D01*
X163709992Y-57719990D02*
X127280010Y-57719990D01*
X166350001Y-60359999D02*
X163709992Y-57719990D01*
X122025685Y-66040000D02*
X121920000Y-66040000D01*
X125466041Y-62599644D02*
X122025685Y-66040000D01*
X125466041Y-62033959D02*
X125466041Y-62599644D01*
%TO.N,Net-(A1-Pad27)*%
X121920000Y-60960000D02*
X129540000Y-60960000D01*
X129540000Y-60960000D02*
X132080000Y-58420000D01*
X132080000Y-58420000D02*
X143510000Y-58420000D01*
X144780000Y-59690000D02*
X144780000Y-60960000D01*
X143510000Y-58420000D02*
X144780000Y-59690000D01*
X132625000Y-81000000D02*
X129000000Y-81000000D01*
X124200000Y-76200000D02*
X121920000Y-76200000D01*
X129000000Y-81000000D02*
X124200000Y-76200000D01*
D18*
%TO.N,Net-(A1-Pad10)*%
X160020000Y-76200000D02*
X160020000Y-82882500D01*
%TO.N,Net-(A1-Pad9)*%
X157480000Y-76200000D02*
X157480000Y-82882500D01*
%TO.N,Net-(A1-Pad8)*%
X154940000Y-76200000D02*
X154940000Y-82882500D01*
D17*
%TO.N,Net-(A1-Pad19)*%
X140970000Y-81612500D02*
X141302500Y-81280000D01*
X140970000Y-83820000D02*
X140970000Y-81612500D01*
X151110001Y-74949999D02*
X149259999Y-74949999D01*
X165100000Y-60960000D02*
X151110001Y-74949999D01*
X148570001Y-80029999D02*
X144780000Y-83820000D01*
X149259999Y-74949999D02*
X148570001Y-75639997D01*
X144780000Y-83820000D02*
X140970000Y-83820000D01*
X148570001Y-75639997D02*
X148570001Y-80029999D01*
X141500000Y-81000000D02*
X134500000Y-81000000D01*
%TO.N,Net-(U1-Pad3)*%
X115570000Y-76200000D02*
X114300000Y-76200000D01*
X116840000Y-71400037D02*
X116840000Y-74930000D01*
X117540010Y-70700027D02*
X116840000Y-71400037D01*
X139700000Y-50800000D02*
X132080000Y-43180000D01*
X139700000Y-52578000D02*
X139700000Y-50800000D01*
X132080000Y-43180000D02*
X129540000Y-43180000D01*
X129540000Y-43180000D02*
X117540010Y-55179990D01*
X116840000Y-74930000D02*
X115570000Y-76200000D01*
X117540010Y-55179990D02*
X117540010Y-70700027D01*
%TO.N,Net-(U1-Pad7)*%
X114300000Y-60960000D02*
X114300000Y-43180000D01*
X114300000Y-43180000D02*
X129540000Y-27940000D01*
X129540000Y-27940000D02*
X146050000Y-27940000D01*
X147320000Y-29210000D02*
X147320000Y-30480000D01*
X146050000Y-27940000D02*
X147320000Y-29210000D01*
%TO.N,Net-(U1-Pad10)*%
X114300000Y-71120000D02*
X116840000Y-68580000D01*
X116840000Y-68580000D02*
X116840000Y-54610000D01*
X139700000Y-31750000D02*
X139700000Y-30480000D01*
X116840000Y-54610000D02*
X139700000Y-31750000D01*
%TO.N,Net-(U1-Pad11)*%
X129540000Y-45720000D02*
X129540000Y-49530000D01*
X129540000Y-49530000D02*
X119380000Y-59690000D01*
X119380000Y-59690000D02*
X119380000Y-62230000D01*
X120650000Y-63500000D02*
X121920000Y-63500000D01*
X119380000Y-62230000D02*
X120650000Y-63500000D01*
D18*
%TO.N,Net-(A1-Pad7)*%
X152400000Y-76200000D02*
X152400000Y-82882500D01*
%TD*%
M02*
