M48
; DRILL file {KiCad (5.1.6)-1} date 12/02/20 21:07:06
; FORMAT={-:-/ absolute / inch / decimal}
; #@! TF.CreationDate,2020-12-02T21:07:06-06:00
; #@! TF.GenerationSoftware,Kicad,Pcbnew,(5.1.6)-1
; #@! TF.FileFunction,Plated,1,2,PTH
FMAT,2
INCH
T1C0.0157
T2C0.0300
T3C0.0315
T4C0.0394
%
G90
G05
T1
X5.1Y-1.8
X5.1Y-1.8
X5.1Y-2.5
X5.35Y-2.25
T2
X5.3Y-1.2
X5.3Y-2.07
X5.4Y-1.2
X5.4Y-2.07
X5.5Y-1.2
X5.5Y-2.07
X5.6Y-1.2
X5.6Y-2.07
X5.7Y-1.2
X5.7Y-2.07
X5.8Y-1.2
X5.8Y-2.07
T3
X4.5Y-2.4
X4.5Y-2.5
X4.5Y-2.6
X4.5Y-2.7
X4.5Y-2.8
X4.5Y-2.9
X4.5Y-3.0
X4.5Y-3.1
X4.8Y-2.4
X4.8Y-2.5
X4.8Y-2.6
X4.8Y-2.7
X4.8Y-2.8
X4.8Y-2.9
X4.8Y-3.0
X4.8Y-3.1
T4
X5.4Y-2.4
X5.4Y-3.0
X5.5Y-2.4
X5.5Y-3.0
X5.6Y-2.4
X5.6Y-3.0
X5.7Y-2.4
X5.7Y-3.0
X5.8Y-2.4
X5.8Y-3.0
X5.9Y-2.4
X5.9Y-3.0
X6.0Y-2.4
X6.0Y-3.0
X6.1Y-2.4
X6.1Y-3.0
X6.2Y-2.4
X6.2Y-3.0
X6.3Y-2.4
X6.3Y-3.0
X6.4Y-2.4
X6.4Y-3.0
X6.5Y-2.4
X6.5Y-3.0
X6.6Y-2.4
X6.6Y-3.0
X6.7Y-2.4
X6.7Y-3.0
X6.8Y-2.4
X6.8Y-3.0
T0
M30
