%TF.GenerationSoftware,KiCad,Pcbnew,(5.1.6)-1*%
%TF.CreationDate,2020-12-02T21:06:57-06:00*%
%TF.ProjectId,BoardDesign,426f6172-6444-4657-9369-676e2e6b6963,rev?*%
%TF.SameCoordinates,Original*%
%TF.FileFunction,Soldermask,Top*%
%TF.FilePolarity,Negative*%
%FSLAX46Y46*%
G04 Gerber Fmt 4.6, Leading zero omitted, Abs format (unit mm)*
G04 Created by KiCad (PCBNEW (5.1.6)-1) date 2020-12-02 21:06:57*
%MOMM*%
%LPD*%
G01*
G04 APERTURE LIST*
%ADD10O,2.500000X1.700000*%
%ADD11R,2.500000X1.700000*%
%ADD12C,1.624000*%
%ADD13R,1.624000X1.624000*%
%ADD14C,1.880000*%
%ADD15O,1.700000X1.700000*%
%ADD16R,1.700000X1.700000*%
G04 APERTURE END LIST*
D10*
%TO.C,U2*%
X121920000Y-60960000D03*
X114300000Y-78740000D03*
X121920000Y-63500000D03*
X114300000Y-76200000D03*
X121920000Y-66040000D03*
X114300000Y-73660000D03*
X121920000Y-68580000D03*
X114300000Y-71120000D03*
X121920000Y-71120000D03*
X114300000Y-68580000D03*
X121920000Y-73660000D03*
X114300000Y-66040000D03*
X121920000Y-76200000D03*
X114300000Y-63500000D03*
X121920000Y-78740000D03*
D11*
X114300000Y-60960000D03*
%TD*%
D12*
%TO.C,U1*%
X147320000Y-52578000D03*
X144780000Y-52578000D03*
X142240000Y-52578000D03*
X139700000Y-52578000D03*
X137160000Y-52578000D03*
D13*
X134620000Y-52578000D03*
D12*
X147320000Y-30480000D03*
X144780000Y-30480000D03*
X142240000Y-30480000D03*
X139700000Y-30480000D03*
X137160000Y-30480000D03*
X134620000Y-30480000D03*
%TD*%
%TO.C,TH1*%
G36*
G01*
X142640000Y-81761250D02*
X142640000Y-80798750D01*
G75*
G02*
X142908750Y-80530000I268750J0D01*
G01*
X143446250Y-80530000D01*
G75*
G02*
X143715000Y-80798750I0J-268750D01*
G01*
X143715000Y-81761250D01*
G75*
G02*
X143446250Y-82030000I-268750J0D01*
G01*
X142908750Y-82030000D01*
G75*
G02*
X142640000Y-81761250I0J268750D01*
G01*
G37*
G36*
G01*
X140765000Y-81761250D02*
X140765000Y-80798750D01*
G75*
G02*
X141033750Y-80530000I268750J0D01*
G01*
X141571250Y-80530000D01*
G75*
G02*
X141840000Y-80798750I0J-268750D01*
G01*
X141840000Y-81761250D01*
G75*
G02*
X141571250Y-82030000I-268750J0D01*
G01*
X141033750Y-82030000D01*
G75*
G02*
X140765000Y-81761250I0J268750D01*
G01*
G37*
%TD*%
%TO.C,R5*%
G36*
G01*
X134082500Y-81761250D02*
X134082500Y-80798750D01*
G75*
G02*
X134351250Y-80530000I268750J0D01*
G01*
X134888750Y-80530000D01*
G75*
G02*
X135157500Y-80798750I0J-268750D01*
G01*
X135157500Y-81761250D01*
G75*
G02*
X134888750Y-82030000I-268750J0D01*
G01*
X134351250Y-82030000D01*
G75*
G02*
X134082500Y-81761250I0J268750D01*
G01*
G37*
G36*
G01*
X132207500Y-81761250D02*
X132207500Y-80798750D01*
G75*
G02*
X132476250Y-80530000I268750J0D01*
G01*
X133013750Y-80530000D01*
G75*
G02*
X133282500Y-80798750I0J-268750D01*
G01*
X133282500Y-81761250D01*
G75*
G02*
X133013750Y-82030000I-268750J0D01*
G01*
X132476250Y-82030000D01*
G75*
G02*
X132207500Y-81761250I0J268750D01*
G01*
G37*
%TD*%
%TO.C,R4*%
G36*
G01*
X160501250Y-83420000D02*
X159538750Y-83420000D01*
G75*
G02*
X159270000Y-83151250I0J268750D01*
G01*
X159270000Y-82613750D01*
G75*
G02*
X159538750Y-82345000I268750J0D01*
G01*
X160501250Y-82345000D01*
G75*
G02*
X160770000Y-82613750I0J-268750D01*
G01*
X160770000Y-83151250D01*
G75*
G02*
X160501250Y-83420000I-268750J0D01*
G01*
G37*
G36*
G01*
X160501250Y-85295000D02*
X159538750Y-85295000D01*
G75*
G02*
X159270000Y-85026250I0J268750D01*
G01*
X159270000Y-84488750D01*
G75*
G02*
X159538750Y-84220000I268750J0D01*
G01*
X160501250Y-84220000D01*
G75*
G02*
X160770000Y-84488750I0J-268750D01*
G01*
X160770000Y-85026250D01*
G75*
G02*
X160501250Y-85295000I-268750J0D01*
G01*
G37*
%TD*%
%TO.C,R3*%
G36*
G01*
X157961250Y-83420000D02*
X156998750Y-83420000D01*
G75*
G02*
X156730000Y-83151250I0J268750D01*
G01*
X156730000Y-82613750D01*
G75*
G02*
X156998750Y-82345000I268750J0D01*
G01*
X157961250Y-82345000D01*
G75*
G02*
X158230000Y-82613750I0J-268750D01*
G01*
X158230000Y-83151250D01*
G75*
G02*
X157961250Y-83420000I-268750J0D01*
G01*
G37*
G36*
G01*
X157961250Y-85295000D02*
X156998750Y-85295000D01*
G75*
G02*
X156730000Y-85026250I0J268750D01*
G01*
X156730000Y-84488750D01*
G75*
G02*
X156998750Y-84220000I268750J0D01*
G01*
X157961250Y-84220000D01*
G75*
G02*
X158230000Y-84488750I0J-268750D01*
G01*
X158230000Y-85026250D01*
G75*
G02*
X157961250Y-85295000I-268750J0D01*
G01*
G37*
%TD*%
%TO.C,R2*%
G36*
G01*
X154458750Y-84220000D02*
X155421250Y-84220000D01*
G75*
G02*
X155690000Y-84488750I0J-268750D01*
G01*
X155690000Y-85026250D01*
G75*
G02*
X155421250Y-85295000I-268750J0D01*
G01*
X154458750Y-85295000D01*
G75*
G02*
X154190000Y-85026250I0J268750D01*
G01*
X154190000Y-84488750D01*
G75*
G02*
X154458750Y-84220000I268750J0D01*
G01*
G37*
G36*
G01*
X154458750Y-82345000D02*
X155421250Y-82345000D01*
G75*
G02*
X155690000Y-82613750I0J-268750D01*
G01*
X155690000Y-83151250D01*
G75*
G02*
X155421250Y-83420000I-268750J0D01*
G01*
X154458750Y-83420000D01*
G75*
G02*
X154190000Y-83151250I0J268750D01*
G01*
X154190000Y-82613750D01*
G75*
G02*
X154458750Y-82345000I268750J0D01*
G01*
G37*
%TD*%
%TO.C,R1*%
G36*
G01*
X152881250Y-83420000D02*
X151918750Y-83420000D01*
G75*
G02*
X151650000Y-83151250I0J268750D01*
G01*
X151650000Y-82613750D01*
G75*
G02*
X151918750Y-82345000I268750J0D01*
G01*
X152881250Y-82345000D01*
G75*
G02*
X153150000Y-82613750I0J-268750D01*
G01*
X153150000Y-83151250D01*
G75*
G02*
X152881250Y-83420000I-268750J0D01*
G01*
G37*
G36*
G01*
X152881250Y-85295000D02*
X151918750Y-85295000D01*
G75*
G02*
X151650000Y-85026250I0J268750D01*
G01*
X151650000Y-84488750D01*
G75*
G02*
X151918750Y-84220000I268750J0D01*
G01*
X152881250Y-84220000D01*
G75*
G02*
X153150000Y-84488750I0J-268750D01*
G01*
X153150000Y-85026250D01*
G75*
G02*
X152881250Y-85295000I-268750J0D01*
G01*
G37*
%TD*%
D14*
%TO.C,A1*%
X175260000Y-76200000D03*
X175260000Y-60960000D03*
X134620000Y-60960000D03*
X134620000Y-76200000D03*
D15*
X172720000Y-60960000D03*
X172720000Y-76200000D03*
X137160000Y-60960000D03*
X170180000Y-76200000D03*
X139700000Y-60960000D03*
X167640000Y-76200000D03*
X142240000Y-60960000D03*
X165100000Y-76200000D03*
X144780000Y-60960000D03*
X162560000Y-76200000D03*
X147320000Y-60960000D03*
X160020000Y-76200000D03*
X149860000Y-60960000D03*
X157480000Y-76200000D03*
X152400000Y-60960000D03*
X154940000Y-76200000D03*
X154940000Y-60960000D03*
X152400000Y-76200000D03*
X157480000Y-60960000D03*
X149860000Y-76200000D03*
X160020000Y-60960000D03*
X147320000Y-76200000D03*
X162560000Y-60960000D03*
X144780000Y-76200000D03*
X165100000Y-60960000D03*
X142240000Y-76200000D03*
X167640000Y-60960000D03*
X139700000Y-76200000D03*
X170180000Y-60960000D03*
D16*
X137160000Y-76200000D03*
%TD*%
M02*
