%TF.GenerationSoftware,KiCad,Pcbnew,(5.1.6)-1*%
%TF.CreationDate,2020-12-02T03:44:21-06:00*%
%TF.ProjectId,BoardDesign,426f6172-6444-4657-9369-676e2e6b6963,rev?*%
%TF.SameCoordinates,Original*%
%TF.FileFunction,Copper,L2,Bot*%
%TF.FilePolarity,Positive*%
%FSLAX46Y46*%
G04 Gerber Fmt 4.6, Leading zero omitted, Abs format (unit mm)*
G04 Created by KiCad (PCBNEW (5.1.6)-1) date 2020-12-02 03:44:21*
%MOMM*%
%LPD*%
G01*
G04 APERTURE LIST*
%TA.AperFunction,ComponentPad*%
%ADD10O,2.400000X1.600000*%
%TD*%
%TA.AperFunction,ComponentPad*%
%ADD11R,2.400000X1.600000*%
%TD*%
%TA.AperFunction,ComponentPad*%
%ADD12C,1.524000*%
%TD*%
%TA.AperFunction,ComponentPad*%
%ADD13R,1.524000X1.524000*%
%TD*%
%TA.AperFunction,ComponentPad*%
%ADD14O,1.600000X1.600000*%
%TD*%
%TA.AperFunction,ComponentPad*%
%ADD15R,1.600000X1.600000*%
%TD*%
%TA.AperFunction,ViaPad*%
%ADD16C,0.800000*%
%TD*%
%TA.AperFunction,Conductor*%
%ADD17C,0.500000*%
%TD*%
G04 APERTURE END LIST*
D10*
%TO.P,74HC595,16*%
%TO.N,Net-(A1-Pad27)*%
X121920000Y-60960000D03*
%TO.P,74HC595,8*%
%TO.N,GND*%
X114300000Y-78740000D03*
%TO.P,74HC595,15*%
%TO.N,Net-(U1-Pad11)*%
X121920000Y-63500000D03*
%TO.P,74HC595,7*%
%TO.N,Net-(U1-Pad3)*%
X114300000Y-76200000D03*
%TO.P,74HC595,14*%
%TO.N,Net-(A1-Pad16)*%
X121920000Y-66040000D03*
%TO.P,74HC595,6*%
%TO.N,Net-(U1-Pad5)*%
X114300000Y-73660000D03*
%TO.P,74HC595,13*%
%TO.N,GND*%
X121920000Y-68580000D03*
%TO.P,74HC595,5*%
%TO.N,Net-(U1-Pad10)*%
X114300000Y-71120000D03*
%TO.P,74HC595,12*%
%TO.N,Net-(A1-Pad15)*%
X121920000Y-71120000D03*
%TO.P,74HC595,4*%
%TO.N,Net-(U1-Pad1)*%
X114300000Y-68580000D03*
%TO.P,74HC595,11*%
%TO.N,Net-(A1-Pad14)*%
X121920000Y-73660000D03*
%TO.P,74HC595,3*%
%TO.N,Net-(U1-Pad2)*%
X114300000Y-66040000D03*
%TO.P,74HC595,10*%
%TO.N,Net-(A1-Pad27)*%
X121920000Y-76200000D03*
%TO.P,74HC595,2*%
%TO.N,Net-(U1-Pad4)*%
X114300000Y-63500000D03*
%TO.P,74HC595,9*%
%TO.N,Net-(U2-Pad9)*%
X121920000Y-78740000D03*
D11*
%TO.P,74HC595,1*%
%TO.N,Net-(U1-Pad7)*%
X114300000Y-60960000D03*
%TD*%
D12*
%TO.P,Screen,6*%
%TO.N,Net-(R1-Pad1)*%
X147320000Y-52578000D03*
%TO.P,Screen,5*%
%TO.N,Net-(U1-Pad5)*%
X144780000Y-52578000D03*
%TO.P,Screen,4*%
%TO.N,Net-(U1-Pad4)*%
X142240000Y-52578000D03*
%TO.P,Screen,3*%
%TO.N,Net-(U1-Pad3)*%
X139700000Y-52578000D03*
%TO.P,Screen,2*%
%TO.N,Net-(U1-Pad2)*%
X137160000Y-52578000D03*
D13*
%TO.P,Screen,1*%
%TO.N,Net-(U1-Pad1)*%
X134620000Y-52578000D03*
D12*
%TO.P,Screen,7*%
%TO.N,Net-(U1-Pad7)*%
X147320000Y-30480000D03*
%TO.P,Screen,8*%
%TO.N,Net-(R2-Pad2)*%
X144780000Y-30480000D03*
%TO.P,Screen,9*%
%TO.N,Net-(R3-Pad1)*%
X142240000Y-30480000D03*
%TO.P,Screen,10*%
%TO.N,Net-(U1-Pad10)*%
X139700000Y-30480000D03*
%TO.P,Screen,11*%
%TO.N,Net-(U1-Pad11)*%
X137160000Y-30480000D03*
%TO.P,Screen,12*%
%TO.N,Net-(R4-Pad1)*%
X134620000Y-30480000D03*
%TD*%
D14*
%TO.P,A1,16*%
%TO.N,Net-(A1-Pad16)*%
X172720000Y-60960000D03*
%TO.P,A1,15*%
%TO.N,Net-(A1-Pad15)*%
X172720000Y-76200000D03*
%TO.P,A1,30*%
%TO.N,Net-(A1-Pad30)*%
X137160000Y-60960000D03*
%TO.P,A1,14*%
%TO.N,Net-(A1-Pad14)*%
X170180000Y-76200000D03*
%TO.P,A1,29*%
%TO.N,GND*%
X139700000Y-60960000D03*
%TO.P,A1,13*%
%TO.N,Net-(A1-Pad13)*%
X167640000Y-76200000D03*
%TO.P,A1,28*%
%TO.N,Net-(A1-Pad28)*%
X142240000Y-60960000D03*
%TO.P,A1,12*%
%TO.N,Net-(A1-Pad12)*%
X165100000Y-76200000D03*
%TO.P,A1,27*%
%TO.N,Net-(A1-Pad27)*%
X144780000Y-60960000D03*
%TO.P,A1,11*%
%TO.N,Net-(A1-Pad11)*%
X162560000Y-76200000D03*
%TO.P,A1,26*%
%TO.N,Net-(A1-Pad26)*%
X147320000Y-60960000D03*
%TO.P,A1,10*%
%TO.N,Net-(A1-Pad10)*%
X160020000Y-76200000D03*
%TO.P,A1,25*%
%TO.N,Net-(A1-Pad25)*%
X149860000Y-60960000D03*
%TO.P,A1,9*%
%TO.N,Net-(A1-Pad9)*%
X157480000Y-76200000D03*
%TO.P,A1,24*%
%TO.N,Net-(A1-Pad24)*%
X152400000Y-60960000D03*
%TO.P,A1,8*%
%TO.N,Net-(A1-Pad8)*%
X154940000Y-76200000D03*
%TO.P,A1,23*%
%TO.N,Net-(A1-Pad23)*%
X154940000Y-60960000D03*
%TO.P,A1,7*%
%TO.N,Net-(A1-Pad16)*%
X152400000Y-76200000D03*
%TO.P,A1,22*%
%TO.N,Net-(A1-Pad22)*%
X157480000Y-60960000D03*
%TO.P,A1,6*%
%TO.N,Net-(A1-Pad6)*%
X149860000Y-76200000D03*
%TO.P,A1,21*%
%TO.N,Net-(A1-Pad21)*%
X160020000Y-60960000D03*
%TO.P,A1,5*%
%TO.N,Net-(A1-Pad5)*%
X147320000Y-76200000D03*
%TO.P,A1,20*%
%TO.N,Net-(A1-Pad20)*%
X162560000Y-60960000D03*
%TO.P,A1,4*%
%TO.N,GND*%
X144780000Y-76200000D03*
%TO.P,A1,19*%
%TO.N,Net-(A1-Pad19)*%
X165100000Y-60960000D03*
%TO.P,A1,3*%
%TO.N,Net-(A1-Pad3)*%
X142240000Y-76200000D03*
%TO.P,A1,18*%
%TO.N,Net-(A1-Pad18)*%
X167640000Y-60960000D03*
%TO.P,A1,2*%
%TO.N,Net-(A1-Pad2)*%
X139700000Y-76200000D03*
%TO.P,A1,17*%
%TO.N,Net-(A1-Pad17)*%
X170180000Y-60960000D03*
D15*
%TO.P,A1,1*%
%TO.N,Net-(A1-Pad1)*%
X137160000Y-76200000D03*
%TD*%
D16*
%TO.N,Net-(U1-Pad11)*%
X129540000Y-45720000D03*
X129540000Y-45720000D03*
%TD*%
D17*
%TO.N,Net-(A1-Pad27)*%
X125730000Y-73660000D02*
X123190000Y-76200000D01*
X125730000Y-63500000D02*
X125730000Y-73660000D01*
X123190000Y-76200000D02*
X121920000Y-76200000D01*
X121920000Y-60960000D02*
X123190000Y-60960000D01*
X123190000Y-60960000D02*
X125730000Y-63500000D01*
%TO.N,Net-(R1-Pad1)*%
X147320000Y-52578000D02*
X147320000Y-54610000D01*
X148609999Y-55899999D02*
X148609999Y-83839999D01*
X147320000Y-54610000D02*
X148609999Y-55899999D01*
X148609999Y-83839999D02*
X151130000Y-86360000D01*
X151130000Y-86360000D02*
X152400000Y-86360000D01*
X152400000Y-86360000D02*
X152400000Y-85090000D01*
%TO.N,Net-(R2-Pad2)*%
X171430001Y-57130001D02*
X171430001Y-78759999D01*
X144780000Y-30480000D02*
X171430001Y-57130001D01*
X171430001Y-78759999D02*
X163830000Y-86360000D01*
X163830000Y-86360000D02*
X162560000Y-87630000D01*
X162560000Y-87630000D02*
X156210000Y-87630000D01*
X156210000Y-87630000D02*
X154940000Y-86360000D01*
X154940000Y-86360000D02*
X154940000Y-85090000D01*
%TO.N,Net-(R3-Pad1)*%
X168890001Y-57130001D02*
X168890001Y-80029999D01*
X142240000Y-30480000D02*
X168890001Y-57130001D01*
X168890001Y-80029999D02*
X162560000Y-86360000D01*
X162560000Y-86360000D02*
X157480000Y-86360000D01*
X157480000Y-86360000D02*
X157480000Y-85090000D01*
%TO.N,Net-(R4-Pad1)*%
X166350001Y-60359999D02*
X166350001Y-78759999D01*
X165700001Y-59709999D02*
X166350001Y-60359999D01*
X134620000Y-30480000D02*
X163849999Y-59709999D01*
X163849999Y-59709999D02*
X165700001Y-59709999D01*
X166350001Y-78759999D02*
X166350001Y-81299999D01*
X166350001Y-81299999D02*
X162560000Y-85090000D01*
X162560000Y-85090000D02*
X160020000Y-85090000D01*
%TO.N,Net-(U1-Pad5)*%
X144780000Y-52578000D02*
X144780000Y-54610000D01*
X144780000Y-54610000D02*
X143510000Y-55880000D01*
X143510000Y-55880000D02*
X133350000Y-55880000D01*
X133350000Y-55880000D02*
X127000000Y-62230000D01*
X127000000Y-62230000D02*
X127000000Y-80010000D01*
X127000000Y-80010000D02*
X124460000Y-82550000D01*
X124460000Y-82550000D02*
X121920000Y-82550000D01*
X121920000Y-82550000D02*
X118110000Y-78740000D01*
X118110000Y-78740000D02*
X118110000Y-74930000D01*
X116840000Y-73660000D02*
X114300000Y-73660000D01*
X118110000Y-74930000D02*
X116840000Y-73660000D01*
%TO.N,Net-(U1-Pad4)*%
X142240000Y-50800000D02*
X142240000Y-52578000D01*
X139700000Y-48260000D02*
X142240000Y-50800000D01*
X116000000Y-63500000D02*
X116840000Y-62660000D01*
X114300000Y-63500000D02*
X116000000Y-63500000D01*
X116840000Y-57150000D02*
X125730000Y-48260000D01*
X125730000Y-48260000D02*
X139700000Y-48260000D01*
X116840000Y-62660000D02*
X116840000Y-57150000D01*
%TO.N,Net-(U1-Pad2)*%
X116000000Y-66040000D02*
X118110000Y-63930000D01*
X114300000Y-66040000D02*
X116000000Y-66040000D01*
X118110000Y-63930000D02*
X118110000Y-58420000D01*
X118110000Y-58420000D02*
X127000000Y-49530000D01*
X127000000Y-49530000D02*
X135890000Y-49530000D01*
X137160000Y-50800000D02*
X137160000Y-52578000D01*
X135890000Y-49530000D02*
X137160000Y-50800000D01*
%TO.N,Net-(U1-Pad1)*%
X119380000Y-59690000D02*
X126492000Y-52578000D01*
X119380000Y-65200000D02*
X119380000Y-59690000D01*
X114300000Y-68580000D02*
X116000000Y-68580000D01*
X126492000Y-52578000D02*
X134620000Y-52578000D01*
X116000000Y-68580000D02*
X119380000Y-65200000D01*
%TO.N,Net-(U1-Pad11)*%
X137160000Y-30480000D02*
X137160000Y-29210000D01*
X137160000Y-29210000D02*
X135890000Y-27940000D01*
X135890000Y-27940000D02*
X135366238Y-27940000D01*
X135366238Y-27940000D02*
X133350000Y-27940000D01*
X133350000Y-27940000D02*
X132080000Y-29210000D01*
X132080000Y-29210000D02*
X129540000Y-31750000D01*
X129540000Y-31750000D02*
X129540000Y-45720000D01*
X129540000Y-45720000D02*
X129540000Y-45720000D01*
X129540000Y-45720000D02*
X129540000Y-45720000D01*
%TD*%
M02*
